<?xml version="1.0" encoding="UTF-8" standalone="no"?>
<!-- Created with Inkscape (http://www.inkscape.org/) -->

<svg
   xmlns:dc="http://purl.org/dc/elements/1.1/"
   xmlns:cc="http://creativecommons.org/ns#"
   xmlns:rdf="http://www.w3.org/1999/02/22-rdf-syntax-ns#"
   xmlns:svg="http://www.w3.org/2000/svg"
   xmlns="http://www.w3.org/2000/svg"
   xmlns:sodipodi="http://sodipodi.sourceforge.net/DTD/sodipodi-0.dtd"
   xmlns:inkscape="http://www.inkscape.org/namespaces/inkscape"
   width="500mm"
   height="1000mm"
   viewBox="0 0 500 1000"
   version="1.1"
   id="svg8"
   inkscape:version="0.92.4 (f8dce91, 2019-08-02)"
   sodipodi:docname="newBackgroundDiversify.svg">
  <defs
     id="defs2" />
  <sodipodi:namedview
     id="base"
     pagecolor="#ffffff"
     bordercolor="#666666"
     borderopacity="1.0"
     inkscape:pageopacity="0.0"
     inkscape:pageshadow="2"
     inkscape:zoom="0.23"
     inkscape:cx="416.02484"
     inkscape:cy="970.03387"
     inkscape:document-units="mm"
     inkscape:current-layer="layer1"
     showgrid="false"
     inkscape:window-width="1920"
     inkscape:window-height="1025"
     inkscape:window-x="1920"
     inkscape:window-y="27"
     inkscape:window-maximized="1" />
  <metadata
     id="metadata5">
    <rdf:RDF>
      <cc:Work
         rdf:about="">
        <dc:format>image/svg+xml</dc:format>
        <dc:type
           rdf:resource="http://purl.org/dc/dcmitype/StillImage" />
        <dc:title></dc:title>
      </cc:Work>
    </rdf:RDF>
  </metadata>
  <g
     inkscape:label="Layer 1"
     inkscape:groupmode="layer"
     id="layer1"
     transform="translate(0,703)">
    <path
       style="fill:#b5ddd5;fill-opacity:1;stroke:none;stroke-width:0.26792255px;stroke-linecap:butt;stroke-linejoin:miter;stroke-opacity:1"
       d="m 172.55436,-703.35514 c 0,0 134.47236,2.30073 245.35311,67.87138 110.88071,65.57065 -90.82784,-140.3442 -90.82784,-140.3442 z"
       id="path826"
       inkscape:connector-curvature="0" />
    <path
       style="fill:#b73564;fill-opacity:1;stroke:none;stroke-width:0.26458332px;stroke-linecap:butt;stroke-linejoin:miter;stroke-opacity:1"
       d="m 551.02354,-305.32979 c 0,0 -189.80977,65.57065 -149.5471,-334.75542 40.26268,-400.32629 178.30615,257.68116 178.30615,257.68116 z"
       id="path848"
       inkscape:connector-curvature="0" />
    <path
       style="fill:#b73564;fill-opacity:1;stroke:none;stroke-width:0.57231194px;stroke-linecap:butt;stroke-linejoin:miter;stroke-opacity:1"
       d="m -63.421188,113.69335 c 0,0 166.668848,622.55492 139.457603,69.17272 C 48.825178,-370.51609 -63.421188,113.69335 -63.421188,113.69335 Z"
       id="path853"
       inkscape:connector-curvature="0" />
  </g>
  <g
     inkscape:groupmode="layer"
     id="layer2"
     inkscape:label="Layer 2">
    <path
       style="fill:#b73564;fill-opacity:1;stroke:none;stroke-width:0.26458332px;stroke-linecap:butt;stroke-linejoin:miter;stroke-opacity:1"
       d="M -50.615941,62.914825 C 88.577899,64.065185 528.01629,-62.474637 391.12318,-110.78987 254.23007,-159.10512 -110.43478,-122.2935 -110.43478,-122.2935 Z"
       id="path821"
       inkscape:connector-curvature="0" />
    <path
       style="fill:#f3b550;fill-opacity:1;stroke:none;stroke-width:0.26458332px;stroke-linecap:butt;stroke-linejoin:miter;stroke-opacity:1"
       d="M 155.29892,-195.91671 C 432.53622,0.79528454 430.23551,175.6503 429.08515,15.749989 427.93477,-144.15037 419.88226,-256.88592 419.88226,-256.88592 Z"
       id="path817"
       inkscape:connector-curvature="0" />
    <path
       style="fill:#df634a;fill-opacity:1;stroke:none;stroke-width:0.26541486px;stroke-linecap:butt;stroke-linejoin:miter;stroke-opacity:1"
       d="m 242.72645,5.0248943 c 0,0 -468.22899,255.0340457 -195.744189,326.8746057 272.484809,71.8406 -574.998551,-58.66982 -574.998551,-58.66982 l 195.74419,-434.6355 z"
       id="path839"
       inkscape:connector-curvature="0" />
    <path
       style="fill:#b5ddd5;fill-opacity:1;stroke:none;stroke-width:0.26458332px;stroke-linecap:butt;stroke-linejoin:miter;stroke-opacity:1"
       d="m 81.675723,425.96917 c 0,0 26.458327,89.72825 -19.556158,125.38948 C 16.105072,587.01988 77.074275,659.49272 32.210144,689.40212 -12.653985,719.31155 -104.68297,543.30611 -104.68297,543.30611 Z"
       id="path851"
       inkscape:connector-curvature="0" />
  </g>
  <g
     inkscape:groupmode="layer"
     id="layer4"
     inkscape:label="Layer 4">
    <path
       style="fill:#df634a;fill-opacity:1;stroke:none;stroke-width:0.26124465px;stroke-linecap:butt;stroke-linejoin:miter;stroke-opacity:1"
       d="m 458.28597,-297.14946 c 188.38045,130.32938 155.71332,343.595583 155.71332,343.595583 0,0 180.75812,503.545167 -107.80152,182.461047 -288.55965,-321.084058 -47.9118,-526.05663 -47.9118,-526.05663 z"
       id="path815"
       inkscape:connector-curvature="0" />
    <path
       style="fill:#f3b550;fill-opacity:1;stroke:none;stroke-width:0.26458332px;stroke-linecap:butt;stroke-linejoin:miter;stroke-opacity:1"
       d="m 27.608694,156.78437 c 0,0 152.998186,192.11049 24.157609,322.10145 C -77.074275,608.87674 -35.661231,239.61046 -35.661231,239.61046 l -13.804347,-59.81885 z"
       id="path846"
       inkscape:connector-curvature="0" />
  </g>
  <g
     inkscape:groupmode="layer"
     id="layer3"
     inkscape:label="Layer 3" />
</svg>
