<?xml version="1.0" encoding="UTF-8" standalone="no"?>
<svg
   xmlns:dc="http://purl.org/dc/elements/1.1/"
   xmlns:cc="http://creativecommons.org/ns#"
   xmlns:rdf="http://www.w3.org/1999/02/22-rdf-syntax-ns#"
   xmlns:svg="http://www.w3.org/2000/svg"
   xmlns="http://www.w3.org/2000/svg"
   xmlns:sodipodi="http://sodipodi.sourceforge.net/DTD/sodipodi-0.dtd"
   xmlns:inkscape="http://www.inkscape.org/namespaces/inkscape"
   enable-background="new 0 0 1920 1080"
   height="1080"
   viewBox="0 0 1920 1080"
   width="1920"
   version="1.1"
   id="svg2191"
   sodipodi:docname="triangle-pattern.svg"
   inkscape:version="0.92.4 (f8dce91, 2019-08-02)">
  <metadata
     id="metadata2197">
    <rdf:RDF>
      <cc:Work
         rdf:about="">
        <dc:format>image/svg+xml</dc:format>
        <dc:type
           rdf:resource="http://purl.org/dc/dcmitype/StillImage" />
        <dc:title></dc:title>
      </cc:Work>
    </rdf:RDF>
  </metadata>
  <defs
     id="defs2195" />
  <sodipodi:namedview
     pagecolor="#b5ddd5"
     bordercolor="#666666"
     borderopacity="1"
     objecttolerance="10"
     gridtolerance="10"
     guidetolerance="10"
     inkscape:pageopacity="1"
     inkscape:pageshadow="2"
     inkscape:window-width="1920"
     inkscape:window-height="1025"
     id="namedview2193"
     showgrid="false"
     inkscape:zoom="0.59"
     inkscape:cx="832.53911"
     inkscape:cy="457.12352"
     inkscape:window-x="1920"
     inkscape:window-y="27"
     inkscape:window-maximized="1"
     inkscape:current-layer="svg2191" />
  <path
     style="fill:none;stroke:#df634a;stroke-width:1px;stroke-linecap:butt;stroke-linejoin:miter;stroke-opacity:1"
     d="M -67.79661,342.71186 450.84746,-4.7457627 -30.508475,622.37288 511.86441,1117.2881 184.74576,-18.305085 738.98305,495.25424 -50.847458,880 194.91525,1112.2034 1225.4237,-60.677966 511.86441,278.30508 445.76271,-3.0508475 1688.1356,-30.169492 1028.8136,156.27119 940.67797,1081.6949 555.9322,703.72881 506.77966,1095.2542 1503.3898,630.84746 1293.2203,1083.3898 1303.3898,78.305088 1577.9661,1076.6102 2011.8644,774.91525 1452.5424,741.01695 2042.3729,405.42373 918.64407,285.08474 1706.7797,752.88136 1688.1356,320.67797 1166.1017,-1.3559322 1937.2881,190.16949 1800,-11.525424 1922.0339,568.13559 1754.2373,1093.5593 971.18644,768.13559 671.18646,818.98305 1140.678,39.322034 689.83051,-25.084746 150.84746,-26.779661 -20.338983,147.79661 Z"
     id="path3844"
     inkscape:connector-curvature="0"
     sodipodi:nodetypes="cccccccccccccccccccccccccccccccccccccc" />
</svg>
